<svg width="189" height="31" viewBox="0 0 189 31" fill="none" xmlns="http://www.w3.org/2000/svg">
<path d="M6.38672 0.878906L10.1953 17.3633L11.0156 21.9531L11.8555 17.4609L15.0977 0.878906H21.4453L24.8633 17.3633L25.7422 21.9531L26.6211 17.5391L30.4688 0.878906H36.582L28.4766 29.668H22.7344L19.2578 12.832L18.2422 7.26562L17.2266 12.832L13.75 29.668H8.16406L0 0.878906H6.38672ZM40.1953 29.668V0.878906H46.1523V11.8555H57.4023V0.878906H63.3789V29.668H57.4023V16.8164H46.1523V29.668H40.1953ZM81.875 25.3711C84.2578 25.3711 86.1458 24.4922 87.5391 22.7344C88.9453 20.9766 89.6484 18.4766 89.6484 15.2344C89.6484 12.0052 88.9453 9.51172 87.5391 7.75391C86.1458 5.98307 84.2578 5.09766 81.875 5.09766C79.4922 5.09766 77.5911 5.97656 76.1719 7.73438C74.7526 9.49219 74.043 11.9922 74.043 15.2344C74.043 18.4766 74.7526 20.9766 76.1719 22.7344C77.5911 24.4922 79.4922 25.3711 81.875 25.3711ZM95.6641 15.2344C95.6641 20.4036 94.2122 24.362 91.3086 27.1094C89.1341 29.349 85.9896 30.4688 81.875 30.4688C77.7604 30.4688 74.6159 29.349 72.4414 27.1094C69.5247 24.362 68.0664 20.4036 68.0664 15.2344C68.0664 9.96094 69.5247 6.0026 72.4414 3.35938C74.6159 1.11979 77.7604 0 81.875 0C85.9896 0 89.1341 1.11979 91.3086 3.35938C94.2122 6.0026 95.6641 9.96094 95.6641 15.2344ZM116.914 29.668H110.938V0.878906H116.914V29.668ZM140.059 18.7891H147.363L143.77 7.46094L140.059 18.7891ZM140.43 0.878906H147.227L157.422 29.668H150.898L149.043 23.75H138.438L136.445 29.668H130.156L140.43 0.878906ZM180.176 0.878906H188.828V29.668H183.223V10.1953C183.223 9.63542 183.229 8.85417 183.242 7.85156C183.255 6.83594 183.262 6.05469 183.262 5.50781L177.812 29.668H171.973L166.562 5.50781C166.562 6.05469 166.569 6.83594 166.582 7.85156C166.595 8.85417 166.602 9.63542 166.602 10.1953V29.668H160.996V0.878906H169.746L174.98 23.5156L180.176 0.878906Z" fill="white"/>
</svg>
